<svg width="21" height="24" viewBox="0 0 21 24" fill="none" xmlns="http://www.w3.org/2000/svg">
<path d="M19.7143 24C19.5343 24 19.3629 23.9486 19.2086 23.8371L10.2857 17.3486L1.36286 23.8371C1.10571 24.0257 0.754286 24.0514 0.471429 23.9057C0.18 23.76 0 23.4686 0 23.1429V2.57143C0 1.15714 1.15714 0 2.57143 0H18C19.4143 0 20.5714 1.15714 20.5714 2.57143V23.1429C20.5714 23.4686 20.3914 23.76 20.1 23.9057C19.98 23.9657 19.8429 24 19.7143 24ZM10.2857 15.4286C10.4657 15.4286 10.6371 15.48 10.7914 15.5914L18.8571 21.4543V2.57143C18.8571 2.1 18.4714 1.71429 18 1.71429H2.57143C2.1 1.71429 1.71429 2.1 1.71429 2.57143V21.4629L9.78 15.6C9.93429 15.4886 10.1057 15.4371 10.2857 15.4371V15.4286Z" fill="white"/>
</svg>
