<svg width="29" height="29" viewBox="0 0 29 29" fill="none" xmlns="http://www.w3.org/2000/svg">
<path d="M10.925 12.4375L17.4769 1.08687C16.5212 0.87375 15.5244 0.75 14.5 0.75C11.2 0.75 8.18187 1.91188 5.81 3.85063L10.8494 12.575L10.925 12.4375ZM27.6175 10.375C26.3525 6.35313 23.2863 3.1425 19.3744 1.6575L14.3419 10.375H27.6175ZM27.975 11.75H17.6763L18.075 12.4375L24.6269 23.7812C26.8681 21.3338 28.25 18.0819 28.25 14.5C28.25 13.5581 28.1537 12.6369 27.975 11.75ZM9.73562 14.5L4.37313 5.21875C2.13188 7.66625 0.75 10.9181 0.75 14.5C0.75 15.4419 0.84625 16.3631 1.025 17.25H11.3237L9.73562 14.5ZM1.3825 18.625C2.6475 22.6469 5.71375 25.8575 9.62562 27.3425L14.6581 18.625H1.3825ZM16.8787 18.625L11.5162 27.9131C12.4787 28.1262 13.4756 28.25 14.5 28.25C17.8 28.25 20.8181 27.0881 23.19 25.1494L18.1506 16.425L16.8787 18.625Z" fill="#EA5F00"/>
</svg>
