<svg width="395" height="659" viewBox="0 0 395 659" fill="none" xmlns="http://www.w3.org/2000/svg">
<path d="M332.083 39.7342C327.572 31.0472 321.659 23.7626 314.257 17.9193C306.855 12.0371 298.402 7.59624 288.898 4.55774C279.394 1.51925 269.364 0 258.808 0C248.253 0 238.092 1.51925 228.325 4.55774C218.557 7.6352 209.973 12.0761 202.571 17.9193C195.169 23.8016 189.212 31.0862 184.745 39.7342C180.234 48.4212 178 58.6274 178 70.3529V573.536C187.636 566.407 181.608 594.691 189.404 585.615L212.864 595H338.741V70.3918C338.741 58.6664 336.507 48.4601 331.996 39.7731L332.083 39.7342Z" fill="white"/>
<path d="M263.728 79.4231C268.167 79.4231 271.765 75.807 271.765 71.3462C271.765 66.8854 268.167 63.2693 263.728 63.2693C259.29 63.2693 255.691 66.8854 255.691 71.3462C255.691 75.807 259.29 79.4231 263.728 79.4231Z" fill="#7C5D11"/>
<path d="M319.988 71.3462C324.426 71.3462 328.025 67.7301 328.025 63.2693C328.025 58.8085 324.426 55.1924 319.988 55.1924C315.549 55.1924 311.951 58.8085 311.951 63.2693C311.951 67.7301 315.549 71.3462 319.988 71.3462Z" fill="#7C5D11"/>
<path d="M313.404 82.3757C326.572 85.3312 343.68 102.322 362.361 106.389C382.062 110.697 383.345 111.746 385.478 115.759C387.412 119.438 371.106 130.862 356.253 134.379C317.406 143.592 278.695 140.597 272.896 123.955C267.667 108.904 289.324 76.9513 313.404 82.3757Z" fill="#EA5F00"/>
<circle cx="162.5" cy="162.5" r="162.5" transform="matrix(-1 0 0 1 325 334)" fill="white"/>
</svg>
