<svg width="19" height="23" viewBox="0 0 19 23" fill="none" xmlns="http://www.w3.org/2000/svg">
<path fill-rule="evenodd" clip-rule="evenodd" d="M18 9.5C18 16.1111 9.5 21.7778 9.5 21.7778C9.5 21.7778 1 16.1111 1 9.5C1 7.24566 1.89553 5.08365 3.48959 3.48959C5.08365 1.89553 7.24566 1 9.5 1C11.7543 1 13.9163 1.89553 15.5104 3.48959C17.1045 5.08365 18 7.24566 18 9.5Z" stroke="black" stroke-width="1.30769" stroke-linecap="round" stroke-linejoin="round"/>
<path d="M9.49935 12.3334C11.0642 12.3334 12.3327 11.0648 12.3327 9.50004C12.3327 7.93523 11.0642 6.6667 9.49935 6.6667C7.93454 6.6667 6.66602 7.93523 6.66602 9.50004C6.66602 11.0648 7.93454 12.3334 9.49935 12.3334Z" stroke="black" stroke-width="1.30769" stroke-linecap="round" stroke-linejoin="round"/>
</svg>
