<svg width="390" height="949" viewBox="0 0 390 949" fill="none" xmlns="http://www.w3.org/2000/svg">
<g clip-path="url(#clip0_51_274)">
<rect width="390" height="949" fill="white"/>
<rect x="-23" y="-9" width="418" height="528" fill="#AAF0F9"/>
<path d="M204.917 132.734C209.428 124.047 215.341 116.763 222.743 110.919C230.145 105.037 238.598 100.596 248.102 97.5577C257.606 94.5192 267.636 93 278.192 93C288.747 93 298.908 94.5192 308.675 97.5577C318.443 100.635 327.027 105.076 334.429 110.919C341.831 116.802 347.788 124.086 352.255 132.734C356.766 141.421 359 151.627 359 163.353V666.536C349.364 659.407 355.392 687.691 347.596 678.615L324.136 688H198.259V163.392C198.259 151.666 200.493 141.46 205.004 132.773L204.917 132.734Z" fill="white"/>
<path d="M273.272 172.423C268.833 172.423 265.235 168.807 265.235 164.346C265.235 159.885 268.833 156.269 273.272 156.269C277.71 156.269 281.309 159.885 281.309 164.346C281.309 168.807 277.71 172.423 273.272 172.423Z" fill="#7C5D11"/>
<path d="M217.012 164.346C212.574 164.346 208.975 160.73 208.975 156.269C208.975 151.808 212.574 148.192 217.012 148.192C221.451 148.192 225.049 151.808 225.049 156.269C225.049 160.73 221.451 164.346 217.012 164.346Z" fill="#7C5D11"/>
<path d="M223.596 175.376C210.428 178.331 193.32 195.322 174.639 199.389C154.938 203.697 153.655 204.746 151.522 208.759C149.588 212.438 165.894 223.862 180.747 227.379C219.594 236.592 258.305 233.597 264.104 216.955C269.333 201.904 247.676 169.951 223.596 175.376Z" fill="#EA5F00"/>
<path d="M339.414 110.412C344.53 84.5409 324.457 71.3711 299.374 66.1663C274.291 60.9616 253.658 65.6848 248.059 91.4557L248.05 91.4539L247 96.5167L366.355 121.283C367.753 121.573 369.122 120.675 369.412 119.277V119.277C369.702 117.879 368.804 116.511 367.406 116.22L339.414 110.412Z" fill="#5096E2"/>
<g clip-path="url(#clip1_51_274)">
<path d="M29.2396 60.4603L29.0247 59.194C28.6482 59.6878 28.1831 60.0773 27.632 60.3626C27.0796 60.6479 26.453 60.7912 25.7521 60.7912C25.1021 60.7912 24.4924 60.7039 23.9205 60.5281C23.3485 60.3522 22.8457 60.0578 22.4106 59.6422C21.9754 59.2266 21.6315 58.6742 21.3775 57.9864C21.1247 57.2985 20.9971 56.4413 20.9971 55.4147V53.6612C20.9971 52.636 21.1234 51.7788 21.3775 51.0896C21.6302 50.4017 21.9741 49.8494 22.4106 49.4338C22.8457 49.0182 23.3485 48.7225 23.9205 48.5479C24.4924 48.372 25.1021 48.2848 25.7521 48.2848C26.298 48.2848 26.7878 48.3655 27.2229 48.5284C27.6581 48.6912 28.0437 48.9153 28.3824 49.2006V45.9476C28.3824 45.6232 28.4371 45.3405 28.5478 45.1008C28.6586 44.8611 28.8045 44.6592 28.9856 44.4963C29.1667 44.3335 29.3777 44.211 29.6187 44.1264C29.8584 44.0417 30.1085 44 30.3691 44C30.6296 44 30.8759 44.0417 31.1091 44.1264C31.3423 44.211 31.5507 44.3348 31.7331 44.4963C31.9155 44.6592 32.0614 44.8598 32.1708 45.1008C32.2815 45.3418 32.3363 45.6232 32.3363 45.9476V60.4603H29.2383H29.2396ZM28.3824 53.389C28.3824 53.0515 28.3277 52.7715 28.2169 52.5513C28.1062 52.3298 27.9668 52.1487 27.7988 52.0054C27.6307 51.8621 27.4483 51.7618 27.2529 51.7032C27.0575 51.6446 26.8764 51.6159 26.7071 51.6159C26.5377 51.6159 26.3592 51.6446 26.1716 51.7032C25.984 51.7618 25.8042 51.8556 25.6362 51.9859C25.4681 52.1162 25.3248 52.2881 25.2076 52.5018C25.0903 52.7167 25.0265 52.9786 25.0122 53.2913V55.7847C25.0252 56.0961 25.0903 56.3592 25.2076 56.5742C25.3248 56.7892 25.4681 56.9598 25.6362 57.0901C25.8055 57.2204 25.984 57.3142 26.1716 57.3728C26.3605 57.4314 26.539 57.4601 26.7071 57.4601C26.8751 57.4601 27.0575 57.4314 27.2529 57.3728C27.4483 57.3142 27.6294 57.2139 27.7988 57.0706C27.9681 56.9272 28.1075 56.7423 28.2169 56.5156C28.3277 56.2876 28.3824 56.0127 28.3824 55.6883V53.389Z" fill="white"/>
<path d="M38.0207 60.7925C37.3967 60.7925 36.8156 60.7078 36.2776 60.5398C35.7383 60.3704 35.2706 60.0825 34.8745 59.6734C34.4785 59.2644 34.1632 58.7159 33.93 58.0268C33.6968 57.3389 33.5796 56.4817 33.5796 55.4551V50.235C33.5796 49.5601 33.7776 49.0664 34.1736 48.755C34.5697 48.4437 35.04 48.2874 35.5858 48.2874C36.1317 48.2874 36.602 48.4437 36.998 48.755C37.3941 49.0664 37.5921 49.5601 37.5921 50.235V55.6896C37.5921 56.027 37.6403 56.3071 37.738 56.5273C37.8357 56.7488 37.9582 56.9298 38.108 57.0731C38.2578 57.2164 38.4232 57.3168 38.6043 57.3754C38.7867 57.434 38.9613 57.4627 39.1306 57.4627C39.287 57.4627 39.455 57.434 39.6374 57.3754C39.8198 57.3168 39.9852 57.223 40.1338 57.0927C40.2836 56.9624 40.4099 56.7904 40.5142 56.5768C40.6184 56.3618 40.677 56.1 40.69 55.7873V50.2154C40.69 49.5536 40.8815 49.0664 41.2645 48.755C41.6476 48.4437 42.1113 48.2874 42.6572 48.2874C43.203 48.2874 43.6707 48.4437 44.0603 48.755C44.4498 49.0664 44.6452 49.5536 44.6452 50.2154V60.4616H41.5472L41.3323 59.1953C40.9688 59.6891 40.5011 60.0786 39.9292 60.3639C39.3573 60.6492 38.7216 60.7925 38.0207 60.7925Z" fill="white"/>
<path d="M49.6126 55.416C49.6126 55.8316 49.6712 56.1729 49.7885 56.4387C49.9057 56.7045 50.0542 56.9129 50.2366 57.0627C50.419 57.2125 50.6222 57.3155 50.8502 57.3741C51.0769 57.4327 51.301 57.4614 51.5224 57.4614C51.8468 57.4614 52.123 57.4392 52.351 57.3936C52.5777 57.348 52.8213 57.2672 53.0818 57.15C53.2251 57.0849 53.3736 57.0106 53.53 56.9259C53.6863 56.8412 53.8544 56.7865 54.0367 56.7605C54.322 56.7084 54.5982 56.7344 54.864 56.8386C55.1298 56.9429 55.3473 57.1305 55.5167 57.404C55.647 57.6255 55.7212 57.8548 55.7408 58.0958C55.7603 58.3368 55.7277 58.57 55.643 58.7967C55.5584 59.0247 55.432 59.2344 55.2626 59.4298C55.0933 59.6252 54.8927 59.7933 54.6582 59.9366C54.2947 60.1581 53.8465 60.3548 53.3137 60.5307C52.7809 60.7065 52.1842 60.7938 51.5211 60.7938C50.8202 60.7938 50.1154 60.7091 49.4081 60.5411C48.7007 60.3717 48.0636 60.0799 47.4995 59.6643C46.9341 59.2487 46.4769 58.6977 46.1264 58.0085C45.776 57.3207 45.6001 56.4504 45.6001 55.3978V53.6834C45.6001 52.6581 45.776 51.8009 46.1264 51.1117C46.4769 50.4239 46.9276 49.8715 47.48 49.4559C48.0323 49.0403 48.6525 48.742 49.3403 48.5596C50.0282 48.3772 50.7108 48.2874 51.3856 48.2874C52.0605 48.2874 52.691 48.3655 53.1978 48.5205C53.7045 48.6769 54.1136 48.8514 54.425 49.0469C54.6582 49.1902 54.8601 49.3556 55.0294 49.5432C55.1975 49.7321 55.3252 49.9366 55.4099 50.1568C55.4945 50.3783 55.5336 50.6024 55.5271 50.829C55.5206 51.057 55.4528 51.2798 55.3226 51.5013C55.1402 51.8256 54.9096 52.0341 54.6308 52.1253C54.3507 52.2165 54.0563 52.2425 53.7449 52.2034C53.5625 52.1774 53.3971 52.1318 53.2486 52.0666C53.0988 52.0015 52.9529 51.9364 52.8109 51.8712C52.6154 51.78 52.4278 51.7149 52.2455 51.6758C52.0631 51.6367 51.8234 51.6172 51.525 51.6172C51.3036 51.6172 51.0834 51.6459 50.8632 51.7045C50.6418 51.7631 50.4372 51.8673 50.2496 52.0158C50.0607 52.1657 49.9083 52.3728 49.7924 52.6399C49.6751 52.9056 49.6165 53.2469 49.6165 53.6625V55.416H49.6126Z" fill="white"/>
<path d="M56.7241 45.9476C56.7241 45.6232 56.7788 45.3405 56.8896 45.1008C57.0003 44.8611 57.1462 44.6592 57.3273 44.4964C57.5097 44.3335 57.7168 44.211 57.9513 44.1264C58.1845 44.0417 58.432 44 58.6913 44C59.1981 44 59.6462 44.1628 60.0357 44.4872C60.4253 44.8116 60.6207 45.2988 60.6207 45.9476V52.7272L64.0691 48.9283C64.2371 48.7472 64.4364 48.5974 64.6631 48.4802C64.8898 48.3629 65.1243 48.2887 65.364 48.2561C65.6037 48.2235 65.8473 48.2366 66.0948 48.2952C66.3411 48.3538 66.569 48.4606 66.7762 48.617C66.9833 48.7733 67.1462 48.9674 67.2634 49.2019C67.3807 49.4351 67.4484 49.6787 67.468 49.9328C67.4875 50.1868 67.4588 50.4356 67.3807 50.6831C67.3025 50.9307 67.1722 51.1378 66.9911 51.3072L64.4195 53.7811L68.7251 60.4629H64.3231L61.7905 56.2941L60.622 57.4236V60.4629H56.7254V45.9476H56.7241Z" fill="white"/>
<path d="M41.5467 78.1609L41.3318 76.8946C40.9553 77.3884 40.4902 77.7779 39.9391 78.0632C39.3868 78.3485 38.7601 78.4918 38.0593 78.4918C37.4092 78.4918 36.7995 78.4045 36.2276 78.2286C35.6557 78.0528 35.1528 77.7583 34.7177 77.3428C34.2826 76.9272 33.9386 76.3761 33.6846 75.687C33.4319 74.9991 33.3042 74.1419 33.3042 73.1153V71.3618C33.3042 70.3365 33.4306 69.4793 33.6846 68.7902C33.9373 68.1023 34.2813 67.5499 34.7177 67.1344C35.1528 66.7188 35.6557 66.4231 36.2276 66.2485C36.7995 66.0726 37.4092 65.9853 38.0593 65.9853C38.6051 65.9853 39.095 66.0661 39.5301 66.2289C39.9652 66.3918 40.3508 66.6159 40.6895 66.9012V63.6482C40.6895 63.3238 40.7442 63.0411 40.855 62.8014C40.9657 62.5617 41.1116 62.3598 41.2927 62.1969C41.4738 62.0341 41.6848 61.9116 41.9258 61.8269C42.1655 61.7422 42.4157 61.7006 42.6762 61.7006C42.9368 61.7006 43.183 61.7422 43.4162 61.8269C43.6494 61.9116 43.8578 62.0354 44.0402 62.1969C44.2226 62.3598 44.3685 62.5604 44.4779 62.8014C44.5887 63.0424 44.6434 63.3238 44.6434 63.6482V78.1609H41.5454H41.5467ZM37.3193 73.3889C37.3193 73.7263 37.374 74.0064 37.4847 74.2266C37.5955 74.448 37.7349 74.6291 37.9029 74.7724C38.071 74.9157 38.2534 75.016 38.4488 75.0747C38.6442 75.1333 38.8253 75.1619 38.9946 75.1619C39.164 75.1619 39.3425 75.1333 39.5301 75.0747C39.7177 75.016 39.8974 74.9222 40.0655 74.792C40.2336 74.6617 40.3769 74.4897 40.4941 74.2761C40.6114 74.0611 40.6752 73.7993 40.6895 73.4866V70.9931C40.6765 70.6818 40.6114 70.4186 40.4941 70.2037C40.3769 69.9887 40.2336 69.818 40.0655 69.6878C39.8961 69.5575 39.7177 69.4637 39.5301 69.4051C39.3412 69.3464 39.1627 69.3178 38.9946 69.3178C38.8266 69.3178 38.6442 69.3464 38.4488 69.4051C38.2534 69.4637 38.0723 69.564 37.9029 69.7073C37.7336 69.8506 37.5942 70.0356 37.4847 70.2623C37.374 70.4903 37.3193 70.7651 37.3193 71.0895V73.3889Z" fill="white"/>
<path d="M52.7313 78.1609L52.5749 77.3428C52.1984 77.6932 51.7568 77.9733 51.25 78.1805C50.7433 78.3876 50.1987 78.4918 49.6138 78.4918H49.1852C48.7826 78.4918 48.3475 78.4306 47.8798 78.3068C47.4121 78.1831 46.9809 77.972 46.5849 77.6737C46.1888 77.3754 45.8579 76.9728 45.5909 76.466C45.3251 75.9593 45.1909 75.3235 45.1909 74.5575C45.1909 73.7915 45.3212 73.2 45.5804 72.7063C45.8397 72.2125 46.1875 71.8165 46.6226 71.5182C47.0578 71.2198 47.5645 71.0049 48.1417 70.8759C48.7188 70.7456 49.3272 70.6805 49.9629 70.6805H51.9692C51.9561 70.3952 51.9014 70.1581 51.8037 69.9692C51.706 69.7816 51.5757 69.6318 51.4142 69.521C51.2513 69.4103 51.0637 69.3334 50.8488 69.2878C50.6351 69.2422 50.4111 69.2201 50.1766 69.2201C49.9551 69.2201 49.7414 69.2396 49.5343 69.2787C49.3259 69.3178 49.1057 69.3699 48.8725 69.4351C48.7162 69.4872 48.5703 69.5458 48.4348 69.6109C48.298 69.6761 48.1391 69.7477 47.958 69.8246C47.7756 69.9158 47.5841 69.964 47.3835 69.9705C47.1815 69.977 46.9835 69.9509 46.7894 69.8923C46.594 69.8337 46.4155 69.7399 46.254 69.6096C46.0911 69.4793 45.9648 69.3178 45.8736 69.1224C45.6912 68.7329 45.6651 68.3525 45.7954 67.9825C45.9257 67.6125 46.1589 67.2972 46.4963 67.038C46.7555 66.8426 47.0486 66.681 47.373 66.5507C47.6974 66.4205 48.0348 66.3136 48.3866 66.229C48.737 66.1443 49.0914 66.0831 49.4483 66.044C49.8053 66.0049 50.1531 65.9854 50.4905 65.9854C51.1914 65.9854 51.8636 66.0596 52.5072 66.2094C53.1495 66.3592 53.7149 66.625 54.2021 67.008C54.6893 67.391 55.0788 67.9199 55.3707 68.5961C55.6625 69.2709 55.8084 70.1346 55.8084 71.1873V78.1609H52.73H52.7313ZM51.9718 73.5439H50.1987C49.8222 73.5439 49.5369 73.6312 49.3415 73.8071C49.1461 73.983 49.0497 74.2253 49.0497 74.5379C49.0497 74.8506 49.1474 75.1033 49.3415 75.2584C49.5369 75.4147 49.8027 75.4916 50.1401 75.4916H50.4124C50.5934 75.4916 50.7758 75.4655 50.9582 75.4134C51.1393 75.3613 51.3061 75.2831 51.4546 75.1802C51.6031 75.076 51.7268 74.947 51.8246 74.7907C51.9223 74.6344 51.9705 74.4533 51.9705 74.2448V73.5439H51.9718Z" fill="white"/>
<path d="M56.724 78.2468V68.0202C56.724 67.6958 56.7787 67.4131 56.8894 67.1734C57.0001 66.9337 57.1461 66.7318 57.3271 66.5689C57.5082 66.4061 57.7167 66.2836 57.9512 66.199C58.1844 66.1143 58.4319 66.0726 58.6911 66.0726C59.0676 66.0726 59.422 66.1638 59.7529 66.3449C60.0838 66.5273 60.3274 66.793 60.4837 67.1435C61.2367 66.4295 62.146 66.0726 63.2104 66.0726C63.807 66.0726 64.379 66.1768 64.9248 66.384C65.4707 66.5924 65.9501 66.9428 66.367 67.4353C66.7695 67.0197 67.2567 66.6888 67.8274 66.4413C68.3993 66.1951 69.0806 66.0713 69.8727 66.0713C70.4954 66.0713 71.0868 66.1586 71.6457 66.3344C72.2046 66.5103 72.6944 66.8021 73.1165 67.2112C73.5386 67.6203 73.876 68.1687 74.1301 68.8579C74.3828 69.547 74.5105 70.3964 74.5105 71.41V78.2482H70.498V71.1768C70.498 70.8524 70.4524 70.5762 70.3612 70.3495C70.27 70.1229 70.1502 69.9379 70.0003 69.7946C69.8505 69.6513 69.689 69.5509 69.5131 69.4923C69.3372 69.4337 69.1718 69.405 69.0168 69.405C68.8617 69.405 68.6924 69.4337 68.51 69.4923C68.3276 69.5509 68.1661 69.6513 68.0228 69.7946C67.8795 69.9379 67.7596 70.1229 67.6619 70.3495C67.5642 70.5775 67.516 70.8524 67.516 71.1768V78.2482H63.6585V71.1768C63.6585 70.8524 63.6129 70.5762 63.5217 70.3495C63.4305 70.1229 63.3107 69.9379 63.1609 69.7946C63.0111 69.6513 62.8495 69.5509 62.6736 69.4923C62.4978 69.4337 62.3323 69.405 62.1773 69.405C62.0223 69.405 61.8555 69.4337 61.6809 69.4923C61.5064 69.5509 61.3461 69.6448 61.2041 69.775C61.0608 69.9053 60.941 70.0773 60.8433 70.2909C60.7456 70.5059 60.6909 70.7677 60.6778 71.0804V78.2495H56.7227L56.724 78.2468Z" fill="white"/>
<path d="M32.042 46.573C32.4446 46.5964 33.0347 47.0524 33.6053 47.0811C34.2085 47.111 34.2515 47.1384 34.3336 47.2569C34.4091 47.3651 33.9858 47.8276 33.565 48.0256C32.4654 48.5428 31.3086 48.66 31.0559 48.1519C30.8266 47.6921 31.3047 46.5326 32.042 46.5743V46.573Z" fill="#EA5F00" stroke="white" stroke-width="0.130276" stroke-miterlimit="10"/>
<path d="M30.7043 46.6642C30.7921 46.6642 30.8633 46.593 30.8633 46.5052C30.8633 46.4175 30.7921 46.3463 30.7043 46.3463C30.6166 46.3463 30.5454 46.4175 30.5454 46.5052C30.5454 46.593 30.6166 46.6642 30.7043 46.6642Z" fill="#7C5D11"/>
<path d="M44.5748 63.9843C44.9773 64.0077 45.5675 64.4637 46.1381 64.4923C46.7412 64.5223 46.7842 64.5496 46.8663 64.6682C46.9419 64.7763 46.5185 65.2388 46.0977 65.4368C44.9982 65.954 43.8413 66.0713 43.5886 65.5632C43.3593 65.1033 43.8374 63.9439 44.5748 63.9856V63.9843Z" fill="#EA5F00" stroke="white" stroke-width="0.130276" stroke-miterlimit="10"/>
<path d="M43.2371 64.0754C43.3248 64.0754 43.396 64.0043 43.396 63.9165C43.396 63.8287 43.3248 63.7576 43.2371 63.7576C43.1493 63.7576 43.0781 63.8287 43.0781 63.9165C43.0781 64.0043 43.1493 64.0754 43.2371 64.0754Z" fill="black"/>
<path d="M71.4789 58.1818C71.5871 58.1545 72.0808 59.2371 72.4026 59.2905C72.9133 59.3765 73.394 58.5075 73.6467 58.6365C73.8825 58.7577 73.6194 59.3856 74.035 59.7425C74.5795 60.2102 75.21 59.1602 75.339 59.2918C75.5331 59.4911 73.8552 62.3337 72.5928 62.0106C71.2953 61.6797 71.2927 58.2274 71.4789 58.1805V58.1818Z" fill="#EA5F00"/>
<path d="M75.7082 61.0804C75.819 61.0935 75.901 62.279 76.1837 62.4431C76.6319 62.7037 77.3862 62.0575 77.5777 62.2685C77.7562 62.4653 77.2885 62.959 77.5529 63.441C77.8982 64.0702 78.8583 63.3081 78.9326 63.4775C79.0433 63.7315 76.4743 65.8042 75.406 65.0577C74.3078 64.2917 75.5193 61.0596 75.7082 61.0804Z" fill="#EA5F00"/>
</g>
</g>
<defs>
<clipPath id="clip0_51_274">
<rect width="390" height="949" fill="white"/>
</clipPath>
<clipPath id="clip1_51_274">
<rect width="58" height="34.4918" fill="white" transform="translate(21 44)"/>
</clipPath>
</defs>
</svg>
