<svg width="230" height="631" viewBox="0 0 230 631" fill="none" xmlns="http://www.w3.org/2000/svg">
<path d="M57.1593 75.7342C61.6706 67.0472 67.5834 59.7626 74.9853 53.9193C82.3873 48.0371 90.8404 43.5962 100.345 40.5577C109.849 37.5192 119.879 36 130.434 36C140.99 36 151.151 37.5192 160.918 40.5577C170.685 43.6352 179.27 48.0761 186.672 53.9193C194.074 59.8016 200.03 67.0862 204.498 75.7342C209.009 84.4212 211.243 94.6274 211.243 106.353V609.536C201.607 602.407 207.634 630.691 199.838 621.615L176.379 631H50.5019V106.392C50.5019 94.6664 52.7356 84.4601 57.2469 75.7731L57.1593 75.7342Z" fill="white"/>
<path d="M125.514 115.423C121.075 115.423 117.477 111.807 117.477 107.346C117.477 102.885 121.075 99.2693 125.514 99.2693C129.953 99.2693 133.551 102.885 133.551 107.346C133.551 111.807 129.953 115.423 125.514 115.423Z" fill="#7C5D11"/>
<path d="M69.255 107.346C64.8162 107.346 61.2179 103.73 61.2179 99.2692C61.2179 94.8084 64.8162 91.1923 69.255 91.1923C73.6937 91.1923 77.292 94.8084 77.292 99.2692C77.292 103.73 73.6937 107.346 69.255 107.346Z" fill="#7C5D11"/>
<path d="M75.8385 118.376C62.6703 121.331 45.563 138.322 26.8815 142.389C7.18109 146.697 5.89724 147.746 3.76441 151.759C1.83095 155.438 18.1364 166.862 32.9892 170.379C71.8371 179.592 110.548 176.597 116.347 159.955C121.576 144.904 99.9183 112.951 75.8385 118.376Z" fill="#EA5F00"/>
<path d="M191.656 53.412C196.773 27.5409 176.699 14.3711 151.617 9.16634C126.534 3.96162 105.901 8.68475 100.302 34.4557L100.293 34.4539L99.2426 39.5167L218.598 64.2832C219.996 64.5733 221.365 63.6752 221.655 62.2771V62.2771C221.945 60.8791 221.047 59.5106 219.649 59.2205L191.656 53.412Z" fill="#5096E2"/>
</svg>
