<svg width="24" height="30" viewBox="0 0 24 30" fill="none" xmlns="http://www.w3.org/2000/svg">
<path d="M11.9999 12.29C13.2167 12.292 14.4067 11.933 15.4194 11.2584C16.4321 10.5838 17.2219 9.62402 17.6889 8.50043C18.1559 7.37684 18.2791 6.13996 18.043 4.94632C17.8068 3.75268 17.2219 2.65592 16.3622 1.79483C15.5025 0.933733 14.4067 0.347008 13.2134 0.108897C12.0202 -0.129214 10.7831 -0.00800839 9.65874 0.457175C8.53439 0.922359 7.5733 1.71061 6.89708 2.72219C6.22087 3.73377 5.85993 4.9232 5.85992 6.13998C5.85992 7.76933 6.50649 9.3321 7.65768 10.4852C8.80887 11.6382 10.3706 12.2873 11.9999 12.29ZM11.9999 1.99998C12.8216 1.99801 13.6253 2.23997 14.3093 2.69522C14.9933 3.15046 15.5268 3.7985 15.8421 4.55722C16.1574 5.31594 16.2405 6.1512 16.0807 6.95715C15.9208 7.7631 15.5254 8.50348 14.9444 9.08447C14.3634 9.66546 13.623 10.0609 12.8171 10.2207C12.0111 10.3805 11.1759 10.2975 10.4172 9.98216C9.65844 9.66682 9.0104 9.13335 8.55516 8.44936C8.09991 7.76536 7.85795 6.96163 7.85992 6.13998C7.86256 5.0428 8.29959 3.99131 9.07542 3.21548C9.85125 2.43965 10.9027 2.00263 11.9999 1.99998ZM23.3799 25.81C22.1799 28.9 16.7199 30 11.9999 30C7.27992 30 1.81992 28.9 0.619924 25.81C-0.0200759 24.16 0.549924 21.71 2.10992 19.42C3.19507 17.782 4.66246 16.4327 6.38548 15.4884C8.1085 14.5442 10.0354 14.0333 11.9999 14C14.3185 14.0508 16.5749 14.7592 18.5064 16.0427C20.4379 17.3262 21.965 19.1321 22.9099 21.25C22.9774 21.3713 23.0189 21.5053 23.0317 21.6435C23.0446 21.7817 23.0285 21.9211 22.9845 22.0527C22.9406 22.1844 22.8697 22.3055 22.7764 22.4082C22.6831 22.511 22.5694 22.5932 22.4426 22.6497C22.3158 22.7061 22.1786 22.7355 22.0398 22.7361C21.901 22.7366 21.7636 22.7082 21.6364 22.6527C21.5092 22.5973 21.3949 22.5159 21.3008 22.4139C21.2067 22.3118 21.1349 22.1913 21.0899 22.06C20.2888 20.304 19.0136 18.8065 17.4076 17.7359C15.8017 16.6653 13.9289 16.0641 11.9999 16C10.3618 16.0332 8.75637 16.4648 7.32244 17.2576C5.88851 18.0503 4.66921 19.1803 3.76992 20.55C2.42992 22.5 2.15992 24.27 2.47992 25.09C3.13992 26.78 7.13992 28 11.9999 28C16.8599 28 20.8599 26.78 21.5199 25.09C21.6282 24.862 21.8187 24.6835 22.0532 24.5901C22.2877 24.4967 22.5488 24.4955 22.7841 24.5866C23.0195 24.6777 23.2117 24.8544 23.3222 25.0813C23.4327 25.3082 23.4533 25.5685 23.3799 25.81Z" fill="#EA5F00"/>
</svg>
