<svg width="99" height="99" viewBox="0 0 99 99" fill="none" xmlns="http://www.w3.org/2000/svg">
<g clip-path="url(#clip0_51_404)">
<rect width="99" height="99" rx="49.5" fill="#AAF0F9"/>
<g clip-path="url(#clip1_51_404)">
<path d="M62.8028 33.1246C60.6017 28.8888 57.7168 25.3368 54.1054 22.4876C50.494 19.6194 46.3697 17.454 41.7325 15.9724C37.0953 14.4908 32.2017 13.75 27.0517 13.75C21.9016 13.75 16.9439 14.4908 12.1785 15.9724C7.41312 17.473 3.22471 19.6384 -0.386731 22.4876C-3.99817 25.3558 -6.90442 28.9078 -9.0841 33.1246C-11.2852 37.3604 -12.375 42.337 -12.375 48.0544V293.409C-7.67372 289.933 -10.6146 303.724 -6.81079 299.299L4.63509 303.875H66.0509V48.0734C66.0509 42.356 64.9611 37.3794 62.76 33.1436L62.8028 33.1246Z" fill="white"/>
<path d="M29.4521 52.477C31.6177 52.477 33.3734 50.7138 33.3734 48.5387C33.3734 46.3636 31.6177 44.6003 29.4521 44.6003C27.2864 44.6003 25.5308 46.3636 25.5308 48.5387C25.5308 50.7138 27.2864 52.477 29.4521 52.477Z" fill="#7C5D11"/>
<path d="M56.9013 48.5387C59.067 48.5387 60.8226 46.7754 60.8226 44.6003C60.8226 42.4252 59.067 40.662 56.9013 40.662C54.7356 40.662 52.98 42.4252 52.98 44.6003C52.98 46.7754 54.7356 48.5387 56.9013 48.5387Z" fill="#7C5D11"/>
<path d="M53.689 53.9169C60.1139 55.358 68.4606 63.6426 77.5753 65.6258C87.1872 67.7266 87.8136 68.2381 88.8542 70.1945C89.7976 71.9888 81.8421 77.5588 74.5953 79.2741C55.6413 83.7664 36.7541 82.3058 33.9247 74.1914C31.3738 66.8521 41.9404 51.2719 53.689 53.9169Z" fill="#EA5F00"/>
</g>
</g>
<defs>
<clipPath id="clip0_51_404">
<rect width="99" height="99" rx="49.5" fill="white"/>
</clipPath>
<clipPath id="clip1_51_404">
<rect width="105.875" height="290.125" fill="white" transform="translate(-12.375 13.75)"/>
</clipPath>
</defs>
</svg>
