<svg width="19" height="19" viewBox="0 0 19 19" fill="none" xmlns="http://www.w3.org/2000/svg">
<path d="M6.89558 6.10375L8.7085 4.28292V11.875C8.7085 12.085 8.7919 12.2863 8.94037 12.4348C9.08884 12.5833 9.2902 12.6667 9.50016 12.6667C9.71012 12.6667 9.91149 12.5833 10.06 12.4348C10.2084 12.2863 10.2918 12.085 10.2918 11.875V4.28292L12.1047 6.10375C12.1783 6.17795 12.2659 6.23685 12.3624 6.27704C12.4588 6.31723 12.5623 6.33792 12.6668 6.33792C12.7713 6.33792 12.8748 6.31723 12.9713 6.27704C13.0678 6.23685 13.1553 6.17795 13.2289 6.10375C13.3031 6.03015 13.362 5.94259 13.4022 5.84612C13.4424 5.74965 13.4631 5.64618 13.4631 5.54167C13.4631 5.43716 13.4424 5.33368 13.4022 5.23721C13.362 5.14074 13.3031 5.05318 13.2289 4.97958L10.0622 1.81292C9.98696 1.74084 9.89817 1.68434 9.801 1.64667C9.60826 1.56749 9.39207 1.56749 9.19933 1.64667C9.10215 1.68434 9.01337 1.74084 8.93808 1.81292L5.77141 4.97958C5.6976 5.0534 5.63905 5.14103 5.5991 5.23747C5.55915 5.33391 5.53859 5.43728 5.53859 5.54167C5.53859 5.64605 5.55915 5.74942 5.5991 5.84586C5.63905 5.94231 5.6976 6.02994 5.77141 6.10375C5.84523 6.17756 5.93286 6.23612 6.0293 6.27606C6.12574 6.31601 6.22911 6.33657 6.3335 6.33657C6.43788 6.33657 6.54125 6.31601 6.63769 6.27606C6.73414 6.23612 6.82177 6.17756 6.89558 6.10375ZM16.6252 9.5C16.4152 9.5 16.2138 9.58341 16.0654 9.73187C15.9169 9.88034 15.8335 10.0817 15.8335 10.2917V15.0417C15.8335 15.2516 15.7501 15.453 15.6016 15.6015C15.4532 15.7499 15.2518 15.8333 15.0418 15.8333H3.9585C3.74853 15.8333 3.54717 15.7499 3.3987 15.6015C3.25024 15.453 3.16683 15.2516 3.16683 15.0417V10.2917C3.16683 10.0817 3.08342 9.88034 2.93496 9.73187C2.78649 9.58341 2.58513 9.5 2.37516 9.5C2.1652 9.5 1.96384 9.58341 1.81537 9.73187C1.6669 9.88034 1.5835 10.0817 1.5835 10.2917V15.0417C1.5835 15.6716 1.83372 16.2756 2.27912 16.721C2.72452 17.1664 3.32861 17.4167 3.9585 17.4167H15.0418C15.6717 17.4167 16.2758 17.1664 16.7212 16.721C17.1666 16.2756 17.4168 15.6716 17.4168 15.0417V10.2917C17.4168 10.0817 17.3334 9.88034 17.185 9.73187C17.0365 9.58341 16.8351 9.5 16.6252 9.5Z" fill="black"/>
</svg>
